<svg xmlns="http://www.w3.org/2000/svg" viewBox="-4 -2 32 32"><g id="Layer_1" transform="translate(-4, -2)"><g id="Report"><path fill="#D11C1C" d="M27, 4L24, 4L24, 26L8, 26L8, 4L5, 4C4.4, 4 4, 4.4 4, 5L4, 29C4, 29.6 4.4, 30 5, 30L27, 30C27.6, 30 28, 29.6 28, 29L28, 5C28, 4.4 27.6, 4 27, 4z" class="Red"/></g></g><g id="Layer_1" transform="translate(-4, -2)"><g id="Report"><path fill="#D11C1C" d="M20, 4L20, 3C20, 2.4 19.6, 2 19, 2L13, 2C12.4, 2 12, 2.4 12, 3L12, 4L10, 4L10, 8L13, 8L19, 8L22, 8L22, 4L20, 4z" class="Red"/></g></g><g id="Layer_1" transform="translate(-4, -2)"><g id="Report"><g class="st0" opacity=".75"><rect width="12" height="2" x="10" y="20" fill="#D11C1C" class="Red" opacity=".75" rx="0" ry="0"/></g></g></g><g id="Layer_1" transform="translate(-4, -2)"><g id="Report"><g class="st0" opacity=".75"><rect width="12" height="2" x="10" y="12" fill="#D11C1C" class="Red" opacity=".75" rx="0" ry="0"/></g></g></g><g id="Layer_1" transform="translate(-4, -2)"><g id="Report"><g class="st0" opacity=".75"><rect width="12" height="2" x="10" y="16" fill="#D11C1C" class="Red" opacity=".75" rx="0" ry="0"/></g></g></g></svg>