<svg xmlns="http://www.w3.org/2000/svg" viewBox="0 0 32 32"><g id="Layer_1" transform="translate(2, 4)"><g id="BarChart"><rect width="8" height="12" x="2" y="16" fill="#FFB115" class="Yellow" rx="0" ry="0"/></g></g><g id="Layer_1" transform="translate(2, 4)"><g id="BarChart"><rect width="8" height="18" x="12" y="10" fill="#1177D7" class="Blue" rx="0" ry="0"/></g></g><g id="Layer_1" transform="translate(2, 4)"><g id="BarChart"><rect width="8" height="24" x="22" y="4" fill="#D11C1C" class="Red" rx="0" ry="0"/></g></g><g id="Layer_1" transform="translate(0, 0)"><g id="Table"><g class="st1" opacity=".5"><rect width="4" height="4" x="0" y="6" fill="#FFB115" class="Yellow" opacity=".5" rx="0" ry="0"/></g></g></g><g id="Layer_1" transform="translate(0, 0)"><g id="Table"><g class="st1" opacity=".5"><rect width="4" height="4" x="6" y="12" fill="#1177D7" class="Blue" opacity=".5" rx="0" ry="0"/></g></g></g><g id="Layer_1" transform="translate(0, 0)"><g id="Table"><g class="st1" opacity=".5"><rect width="4" height="4" x="0" y="12" fill="#FFB115" class="Yellow" opacity=".5" rx="0" ry="0"/></g></g></g><g id="Layer_1" transform="translate(0, 0)"><g id="Table"><g class="st1" opacity=".5"><rect width="4" height="4" x="12" y="6" fill="#D11C1C" class="Red" opacity=".5" rx="0" ry="0"/></g></g></g><g id="Layer_1" transform="translate(0, 0)"><g id="Table"><g class="st1" opacity=".5"><rect width="4" height="4" x="12" y="12" fill="#D11C1C" class="Red" opacity=".5" rx="0" ry="0"/></g></g></g><g id="Layer_1" transform="translate(0, 0)"><g id="Table"><g class="st1" opacity=".5"><rect width="4" height="4" x="6" y="6" fill="#1177D7" class="Blue" opacity=".5" rx="0" ry="0"/></g></g></g><g id="Layer_1" transform="translate(0, 0)"><g id="Table"><rect width="16" height="4" x="0" y="0" fill="#727272" class="Black" rx="0" ry="0"/></g></g></svg>